HIERARCHY
ROOT Hips
{
  OFFSET 196.326 95.9168 97.7182
  CHANNELS 6 Xposition Yposition Zposition Zrotation Xrotation Yrotation
  JOINT LeftUpLeg
  {
    OFFSET 8.64259 1.95398 -2.38835
    CHANNELS 3 Zrotation Xrotation Yrotation
    JOINT LeftLeg
    {
      OFFSET 43.7702 0 0
      CHANNELS 3 Zrotation Xrotation Yrotation
      JOINT LeftFoot
      {
        OFFSET 40.6238 0 0
        CHANNELS 3 Zrotation Xrotation Yrotation
        JOINT LeftToeBase
        {
          OFFSET 12.7242 0 0
          CHANNELS 3 Zrotation Xrotation Yrotation
          End Site
          {
            OFFSET 0 0 0
          }
        }
      }
    }
  }
  JOINT RightUpLeg
  {
    OFFSET -8.2249 1.95398 -2.59336
    CHANNELS 3 Zrotation Xrotation Yrotation
    JOINT RightLeg
    {
      OFFSET 43.5653 0 0
      CHANNELS 3 Zrotation Xrotation Yrotation
      JOINT RightFoot
      {
        OFFSET 40.6238 0 0
        CHANNELS 3 Zrotation Xrotation Yrotation
        JOINT RightToeBase
        {
          OFFSET 12.7242 0 0
          CHANNELS 3 Zrotation Xrotation Yrotation
          End Site
          {
            OFFSET 0 0 0
          }
        }
      }
    }
  }
  JOINT Spine
  {
    OFFSET 0.165834 0.87714 6.61349
    CHANNELS 3 Zrotation Xrotation Yrotation
    JOINT Spine1
    {
      OFFSET 7.38963 1.71661e-005 0
      CHANNELS 3 Zrotation Xrotation Yrotation
      JOINT Spine2
      {
        OFFSET 11.9445 1.14441e-005 0
        CHANNELS 3 Zrotation Xrotation Yrotation
        JOINT Spine3
        {
          OFFSET 14.7254 4.19617e-005 0
          CHANNELS 3 Zrotation Xrotation Yrotation
          JOINT Spine4
          {
            OFFSET 10.9679 0 0
            CHANNELS 3 Zrotation Xrotation Yrotation
            JOINT RightShoulder
            {
              OFFSET 2.46616 -1.6653 3.69651
              CHANNELS 3 Zrotation Xrotation Yrotation
              JOINT RightArm
              {
                OFFSET 13.0012 0 0
                CHANNELS 3 Zrotation Xrotation Yrotation
                JOINT RightForeArm
                {
                  OFFSET 28.7848 1.52588e-005 0
                  CHANNELS 3 Zrotation Xrotation Yrotation
                  JOINT RightHand
                  {
                    OFFSET 26.5688 1.52588e-005 0
                    CHANNELS 3 Zrotation Xrotation Yrotation
                    End Site
                    {
                      OFFSET 0 0 0
                    }
                  }
                }
              }
            }
            JOINT LeftShoulder
            {
              OFFSET 2.38034 -1.29275 -3.75231
              CHANNELS 3 Zrotation Xrotation Yrotation
              JOINT LeftArm
              {
                OFFSET 16.3182 6.10351e-005 0
                CHANNELS 3 Zrotation Xrotation Yrotation
                JOINT LeftForeArm
                {
                  OFFSET 27.0901 0 0
                  CHANNELS 3 Zrotation Xrotation Yrotation
                  JOINT LeftHand
                  {
                    OFFSET 24.5451 1.52588e-005 0
                    CHANNELS 3 Zrotation Xrotation Yrotation
                    End Site
                    {
                      OFFSET 0 0 0
                    }
                  }
                }
              }
            }
            JOINT Neck
            {
              OFFSET 5.0226 -0.0266342 0
              CHANNELS 3 Zrotation Xrotation Yrotation
              JOINT Head
              {
                OFFSET 6.69363 2.86102e-005 0
                CHANNELS 3 Zrotation Xrotation Yrotation
                End Site
                {
                  OFFSET 0 0 0
                }
              }
            }
          }
        }
      }
    }
  }
}
MOTION
Frames:	6
Frame Time:	0.0416667
-283.323 83.419 -280.322 35.1816 5.0344 70.8729 -158.447 36.9605 86.8197 -20.7193 -28.654 -33.5047 23.0372 -35.6673 -5.98502 98.7777 -57.406 177.587 -129.965 36.62 60.0195 -149.716 -12.6493 -110.794 79.3459 -38.3055 -26.2405 23.2959 4.18048 -39.9238 14.6514 4.86136 -81.4759 15.889 33.1681 11.9708 4.66049 33.6563 10.3378 -20.2787 28.01 21.9503 -0.26608 28.01 21.9503 83.5501 11.2062 -174.617 127.408 18.6063 -22.3387 167.257 -29.2561 -108.534 -13.6564 -0.955493 -47.2468 -122.085 -7.2512 -3.7785 -50.5135 66.4251 -14.3298 127.724 36.6394 -172.097 -42.2474 9.49102 -30.3864 42.9416 61.2898 -105.872 -99.9532 30.716 84.0347 
-283.564 83.0194 -280.505 35.2103 5.08189 70.8357 -158.884 40.0341 87.0845 -26.0794 -27.051 -33.041 24.0468 -36.1177 -8.73013 101.233 -57.2073 -179.519 -129.86 35.8189 60.143 -148.687 -12.8525 -110.318 81.7232 -37.338 -25.5908 23.2972 3.9845 -38.2798 14.5575 4.81822 -81.4831 15.9884 32.9804 11.9461 4.75369 33.4677 10.3247 -20.1493 27.8398 21.8576 -0.136682 27.8398 21.8576 85.5353 13.2372 -174.966 127.738 16.4879 -22.1949 169.451 -27.9024 -108.902 -10.5923 -2.1121 -47.4019 -125.217 -10.1497 -4.39518 -52.7317 66.8187 -8.12882 126.538 39.6864 -171.215 -44.1289 10.4416 -31.5417 44.672 62.6263 -107.441 -98.6766 31.8591 87.3792 
-284.377 81.929 -281.095 35.3906 5.1778 70.7231 -158.073 46.3716 85.1283 -35.3361 -23.1813 -28.4686 24.2312 -37.5272 -16.4249 115.622 -59.6452 -167.353 -129.475 33.8542 60.358 -147.677 -12.8007 -109.525 86.6881 -35.5725 -24.9351 22.7901 3.77111 -35.3893 14.4783 4.73837 -81.4769 16.1676 32.8293 11.9133 4.92804 33.3154 10.3011 -19.9478 27.7064 21.7714 0.0648074 27.7064 21.7715 88.4469 15.998 -174.984 126.976 13.2931 -20.5656 178.298 -24.0637 -108.017 -3.35195 -4.68429 -45.8646 -124.567 -9.61613 -4.18361 -53.4667 65.5517 -7.45058 126.39 43.3996 -170.831 -43.8592 10.4081 -31.64 46.8136 62.25 -108.616 -99.0508 31.8274 88.3974 
-285.732 80.391 -281.98 35.8732 5.25428 70.5338 -157.07 53.4904 79.5453 -43.3469 -19.7752 -17.8088 21.6502 -40.2901 -28.5719 144.155 -59.6625 -142.894 -128.96 31.2859 60.5064 -148.434 -12.2891 -109.345 91.8656 -35.4152 -25.4579 20.701 4.02944 -33.4568 14.3699 4.55205 -81.5557 16.6253 32.5803 11.6159 5.38017 33.0539 10.0177 -19.484 27.5547 21.4117 0.528673 27.5548 21.4117 92.6485 19.8456 -174.931 124.91 7.3044 -17.5087 -167.394 -20.3094 -106.076 5.87763 -7.88374 -44.3966 -125.617 -10.469 -4.54166 -56.6233 62.7681 -2.46835 126.548 49.4257 -171.156 -43.6441 9.923 -30.5966 48.963 62.0419 -110.196 -99.655 31.2724 89.5417 
-287.524 78.6677 -283.066 36.8187 5.23461 70.2628 -158.454 59.2415 76.3724 -50.3514 -14.8942 -11.0418 22.8846 -40.639 -37.3038 -174.78 -45.8271 -110.351 -128.474 28.647 61.192 -152.483 -10.4726 -109.498 93.2223 -37.3245 -28.5752 19.4366 4.52236 -34.6774 14.3094 4.3274 -81.6342 17.1723 32.4253 11.272 5.92502 32.8841 9.68205 -18.9524 27.5048 21.0451 1.06028 27.5048 21.0451 98.0256 24.5331 -174.086 121.284 -1.53751 -13.8877 -151.446 -16.4672 -102.451 14.0744 -10.4399 -42.4517 -123.312 -8.23436 -4.2098 -58.3874 60.7261 -3.00321 123.234 62.9446 -167.179 -41.2711 7.49638 -25.6367 52.342 59.9286 -112.354 -101.082 31.8355 90.3845 
-289.491 77.2713 -284.213 38.4003 5.01423 69.9026 -160.043 63.583 73.4244 -55.7811 -2.98554 -6.49219 34.3068 -36.0083 -34.8025 -144.74 2.00995 -91.1876 -128.532 26.1579 62.311 -1.44376 -0.71909 -68.1024 110.872 42.4366 106.893 18.8203 5.16188 -37.7027 14.1327 4.04364 -81.8889 17.914 31.9516 10.5532 6.6573 32.3799 8.98949 -18.2148 27.2602 20.2217 1.79781 27.2602 20.2217 104.137 29.7594 -175.392 116.445 -11.6576 -8.77365 -135.192 -7.70518 -98.0078 21.1619 -12.3032 -40.0065 -124.872 -9.54104 -4.66747 -61.2104 57.1228 2.22104 115.717 77.7368 -159.205 -32.7317 3.59524 -17.7433 -15.2892 57.3227 -50.7772 -49.1584 43.6699 51.0781 
